<?xml version="1.0" encoding="UTF-8"?>
<svg width="100pt" height="100pt" version="1.1" viewBox="0 0 100 100" xmlns="http://www.w3.org/2000/svg">
 <path d="m47.5 54.57v-23.957c0-1.3828 1.1211-2.5 2.5-2.5s2.5 1.1211 2.5 2.5v23.957c0 1.3789-1.1211 2.5-2.5 2.5s-2.5-1.1211-2.5-2.5zm2.5 8.1367c-1.8398 0-3.332 1.4961-3.332 3.3359 0 1.8398 1.4922 3.3359 3.332 3.3359s3.332-1.4961 3.332-3.3359c0-1.8398-1.4922-3.3359-3.332-3.3359zm44.168-12.707c0 24.355-19.812 44.168-44.168 44.168s-44.168-19.812-44.168-44.168 19.812-44.168 44.168-44.168 44.168 19.812 44.168 44.168zm-5 0c0-21.598-17.57-39.168-39.168-39.168s-39.168 17.57-39.168 39.168c0 21.602 17.57 39.168 39.168 39.168s39.168-17.566 39.168-39.168z"/>
</svg>
